<svg xmlns="http://www.w3.org/2000/svg" viewBox="0 0 100 100">
  <rect fill="#f49138" x="59.9" y="59.14" width="39.09" height="39.85" rx="4.57"/>
  <path fill="#ff9f40" d="M65,60.41H81.73a8.37,8.37,0,0,1,8.37,8.37V89.34a8.38,8.38,0,0,1-8.37,8.38H65a4.07,4.07,0,0,1-4.06-4.07V64.21A4.06,4.06,0,0,1,65,60.15Z" />
  <path d="M1.65,0" />
  <rect fill="#65d1cb" x="3.88" y="51.4" width="39.09" height="39.85" rx="4.57" transform="translate(-14.32 6.43) rotate(-12)"/>
  <path fill="#73e7e6" d="M5.05,56.13l16.39-3.49a8.38,8.38,0,0,1,9.93,6.45L35.64,79.2a8.37,8.37,0,0,1-6.45,9.94L12.81,92.62A4.06,4.06,0,0,1,8,89.49L1.87,60.69A4.06,4.06,0,0,1,5.05,56.13Z" />
  <path d="M1.65,0" />
  <rect fill="#dd5b5b" x="37.29" y="5.11" width="39.85" height="39.09" rx="4.57" transform="translate(16.92 72.16) rotate(-73)"/>
  <path fill="#f26666" d="M48.7,2.38l16,4.9a8.38,8.38,0,0,1,5.56,10.46l-6,19.66A8.39,8.39,0,0,1,53.81,43l-16-4.9A4.07,4.07,0,0,1,35.09,33L43.7,4.83a4.06,4.06,0,0,1,5.07-2.69Z" />
  <path d="M1.65,0" />
  <path d="M-568.12-217.9" />
  <path d="M94.42,100H64.47a5.59,5.59,0,0,1-5.59-5.58V63.71a5.6,5.6,0,0,1,5.59-5.59h30A5.59,5.59,0,0,1,100,63.71V94.42A5.58,5.58,0,0,1,94.42,100ZM64.47,60.15a3.57,3.57,0,0,0-3.56,3.56V94.42A3.56,3.56,0,0,0,64.47,98h30A3.55,3.55,0,0,0,98,94.42V63.71a3.56,3.56,0,0,0-3.55-3.56Z" />
  <path d="M12,95.05a5.61,5.61,0,0,1-5.45-4.43l-6.39-30A5.59,5.59,0,0,1,4.42,54h0l29.3-6.23A5.59,5.59,0,0,1,40.34,52l6.39,30a5.59,5.59,0,0,1-4.3,6.63l-29.3,6.22A5.18,5.18,0,0,1,12,95.05ZM4.85,56a3.54,3.54,0,0,0-2.74,4.21l6.38,30A3.56,3.56,0,0,0,10,92.44a3.52,3.52,0,0,0,2.68.5L42,86.71a3.55,3.55,0,0,0,2.74-4.21l-6.39-30a3.54,3.54,0,0,0-4.21-2.74L4.85,56Z" />
  <path d="M67.05,49.3a5.44,5.44,0,0,1-1.64-.25L36.77,40.29a5.56,5.56,0,0,1-3.7-7L42,4a5.59,5.59,0,0,1,7-3.7L77.66,9a5.59,5.59,0,0,1,3.7,7l-9,29.36a5.61,5.61,0,0,1-5.34,4ZM47.39,2A3.55,3.55,0,0,0,44,4.55L35,33.92a3.55,3.55,0,0,0,2.36,4.43L66,47.11a3.55,3.55,0,0,0,4.43-2.36l9-29.37a3.51,3.51,0,0,0-.26-2.71,3.55,3.55,0,0,0-2.1-1.73L48.42,2.19A3.35,3.35,0,0,0,47.39,2Z" />
</svg>
